<?xml version="1.0" encoding="utf-8"?>
<!-- Generator: Adobe Illustrator 25.1.0, SVG Export Plug-In . SVG Version: 6.00 Build 0)  -->
<svg version="1.1" id="Laag_1" xmlns="http://www.w3.org/2000/svg" xmlns:xlink="http://www.w3.org/1999/xlink" x="0px" y="0px"
	 viewBox="0 0 408 80" style="enable-background:new 0 0 408 80;" xml:space="preserve">
<style type="text/css">
	.st0{fill:url(#SVGID_1_);}
</style>
<g>
	<path d="M202.84,73.15c-0.71,0-1.29-0.58-1.29-1.28V7.94c0-0.71,0.58-1.28,1.29-1.28c0.71,0,1.28,0.58,1.28,1.28v63.93
		C204.13,72.58,203.55,73.15,202.84,73.15z"/>
</g>
<radialGradient id="SVGID_1_" cx="96.5426" cy="39.9063" r="69.4984" gradientUnits="userSpaceOnUse">
	<stop  offset="0.35" style="stop-color:#E5316C"/>
	<stop  offset="1" style="stop-color:#B6006C"/>
</radialGradient>
<path class="st0" d="M124.27,20.22l-7.55,13.08c-1.57-4.8-4.83-9.07-9.55-11.8c-1.96-1.13-4.03-1.91-6.13-2.36l-4.49-8.98l-4.5,9.01
	c-5.65,1.23-10.79,4.72-13.91,10.12L56.47,66.79c-3.52,6.1-11.32,8.19-17.42,4.67c-2.02-1.16-3.58-2.79-4.67-4.67L5.19,16.22
	c-1.76-3.05-0.72-6.95,2.33-8.71c3.05-1.76,6.95-0.72,8.71,2.33l28.58,49.5c0.27,0.47,0.95,0.47,1.23,0L67.08,22.9
	c9.39-16.27,30.2-21.84,46.47-12.45C117.93,12.98,121.53,16.34,124.27,20.22z M187.9,63.59l-29.2-50.56
	c-1.08-1.88-2.65-3.51-4.67-4.67c-6.1-3.52-13.9-1.43-17.42,4.67l-21.66,37.51c-3.12,5.4-8.25,8.89-13.9,10.12l-4.51,9.02l-4.5-9
	c-2.1-0.46-4.17-1.23-6.13-2.36c-4.72-2.73-7.98-7-9.55-11.8L68.81,59.6c2.75,3.87,6.34,7.24,10.73,9.76
	c16.27,9.39,37.07,3.82,46.47-12.45l21.04-36.44c0.27-0.47,0.95-0.47,1.23,0l28.58,49.5c1.76,3.05,5.66,4.1,8.71,2.33
	C188.61,70.54,189.66,66.64,187.9,63.59z"/>
<g>
	<g>
		<path d="M234,13.9c0.25-0.73,1.02-1.05,1.68-0.83c0.67,0.25,0.98,1.08,0.76,1.75l-6.92,18.57c-0.57,1.52-1.49,2.29-2.79,2.29
			c-1.3,0-2.22-0.76-2.83-2.29l-6.89-18.57c-0.25-0.67,0.1-1.46,0.76-1.71s1.43,0.06,1.68,0.76l6.89,18.95
			c0.06,0.13,0.16,0.29,0.38,0.29c0.22,0,0.35-0.16,0.38-0.29L234,13.9z"/>
		<path d="M251.08,26.28c0,1.11-0.57,1.84-1.87,1.84h-9.49v0.51c0,2.98,1.94,4.67,4.73,4.67c1.14,0,2.44-0.32,3.87-0.83
			c1.14-0.44,1.84,0.29,1.84,1.02c0,0.41-0.16,0.79-0.7,1.14c-1.02,0.6-3.24,1.02-5.05,1.02c-4.38,0-6.98-2.76-7.21-6.83
			c-0.06-1.21-0.06-2.83,0.03-3.81c0.35-4.1,3.14-6.57,7.02-6.57c4.19,0,6.83,2.86,6.83,6.89V26.28z M248.16,25.96
			c0.25,0,0.38-0.13,0.41-0.38c0.19-2.89-1.56-4.83-4.29-4.83c-3.11,0-4.67,2.03-4.57,5.21H248.16z"/>
		<path d="M264.57,19.99c0,0.51-0.38,1.17-1.27,1.17c-0.63,0-1.4-0.25-2.51-0.25c-1.78,0.03-2.57,0.92-2.57,2.86v10.41
			c0,0.73-0.57,1.3-1.3,1.3c-0.7,0-1.3-0.57-1.3-1.3v-10.7c0-3.11,1.84-5.05,5.17-5.05c1.08,0,2.16,0.16,2.76,0.35
			C264.29,18.98,264.57,19.39,264.57,19.99z"/>
		<path d="M281.97,20.53l-4.86,13.02c-0.51,1.33-1.37,2-2.48,2c-1.08,0-1.94-0.67-2.38-1.97l-4.92-13.11
			c-0.38-0.98,0.32-1.84,1.24-1.84c0.54,0,0.98,0.41,1.17,0.92l4.76,13.17c0.03,0.1,0.1,0.13,0.16,0.13c0.06,0,0.13-0.03,0.16-0.13
			l4.67-13.02c0.22-0.6,0.67-1.02,1.27-1.02C281.68,18.69,282.32,19.61,281.97,20.53z"/>
		<path d="M299.02,24.72c0.1,1.3,0.1,3.24,0,4.51c-0.22,3.71-3.14,6.41-7.08,6.41c-3.9,0-6.86-2.7-7.08-6.41
			c-0.06-1.27-0.06-3.21,0-4.51c0.22-3.71,3.17-6.29,7.08-6.29C295.88,18.44,298.8,21.01,299.02,24.72z M287.43,24.91
			c-0.06,1.11-0.06,3.08,0,4.16c0.22,2.48,1.94,4.16,4.51,4.16s4.29-1.68,4.51-4.16c0.06-1.08,0.06-3.05,0-4.16
			c-0.16-2.35-1.84-4.06-4.51-4.06S287.59,22.56,287.43,24.91z"/>
		<path d="M317.02,26.28c0,1.11-0.57,1.84-1.87,1.84h-9.49v0.51c0,2.98,1.94,4.67,4.73,4.67c1.14,0,2.44-0.32,3.87-0.83
			c1.14-0.44,1.84,0.29,1.84,1.02c0,0.41-0.16,0.79-0.7,1.14c-1.02,0.6-3.24,1.02-5.05,1.02c-4.38,0-6.98-2.76-7.21-6.83
			c-0.06-1.21-0.06-2.83,0.03-3.81c0.35-4.1,3.14-6.57,7.02-6.57c4.19,0,6.83,2.86,6.83,6.89V26.28z M314.1,25.96
			c0.25,0,0.38-0.13,0.41-0.38c0.19-2.89-1.56-4.83-4.29-4.83c-3.11,0-4.67,2.03-4.57,5.21H314.1z"/>
		<path d="M330.51,19.99c0,0.51-0.38,1.17-1.27,1.17c-0.63,0-1.4-0.25-2.51-0.25c-1.78,0.03-2.57,0.92-2.57,2.86v10.41
			c0,0.73-0.57,1.3-1.3,1.3c-0.7,0-1.3-0.57-1.3-1.3v-10.7c0-3.11,1.84-5.05,5.18-5.05c1.08,0,2.16,0.16,2.76,0.35
			C330.23,18.98,330.51,19.39,330.51,19.99z"/>
		<path d="M342.51,19.99c0,0.51-0.38,1.17-1.27,1.17c-0.63,0-1.4-0.25-2.51-0.25c-1.78,0.03-2.57,0.92-2.57,2.86v10.41
			c0,0.73-0.57,1.3-1.3,1.3c-0.7,0-1.3-0.57-1.3-1.3v-10.7c0-3.11,1.84-5.05,5.17-5.05c1.08,0,2.16,0.16,2.76,0.35
			C342.23,18.98,342.51,19.39,342.51,19.99z"/>
		<path d="M358.58,26.28c0,1.11-0.57,1.84-1.87,1.84h-9.49v0.51c0,2.98,1.94,4.67,4.73,4.67c1.14,0,2.44-0.32,3.87-0.83
			c1.14-0.44,1.84,0.29,1.84,1.02c0,0.41-0.16,0.79-0.7,1.14c-1.02,0.6-3.24,1.02-5.05,1.02c-4.38,0-6.98-2.76-7.21-6.83
			c-0.06-1.21-0.06-2.83,0.03-3.81c0.35-4.1,3.14-6.57,7.02-6.57c4.19,0,6.83,2.86,6.83,6.89V26.28z M355.66,25.96
			c0.25,0,0.38-0.13,0.41-0.38c0.19-2.89-1.56-4.83-4.29-4.83c-3.11,0-4.67,2.03-4.57,5.21H355.66z"/>
		<path d="M376.45,34.18c0,4.32-2.57,7.14-7.94,7.14c-1.05,0-2.25-0.13-3.56-0.35c-0.63-0.13-1.14-0.51-1.14-1.17
			c0-0.7,0.51-1.43,1.49-1.24c1.24,0.25,2.32,0.38,3.3,0.38c3.59,0,5.27-1.71,5.27-4.83c-1.14,0.54-2.79,1.08-4.7,1.08
			c-3.94,0-6.32-2.57-6.54-6.32c-0.06-1.24-0.06-2.76,0-4c0.22-3.78,2.83-6.44,6.64-6.44c3.33,0,5.78,1.24,6.63,1.9
			c0.41,0.25,0.54,0.6,0.54,1.11V34.18z M365.21,25.04c-0.06,1.11-0.03,2.6,0,3.68c0.19,2.48,1.46,4.1,4.03,4.1s4.03-0.83,4.64-1.3
			v-9.49c-0.1-0.1-1.81-1.14-4.29-1.14C366.71,20.88,365.44,22.56,365.21,25.04z"/>
		<path d="M383.12,16.12c-0.89,0-1.56-0.76-1.56-1.62c0-0.89,0.67-1.59,1.56-1.59c0.89,0,1.59,0.7,1.59,1.59
			C384.71,15.36,384.01,16.12,383.12,16.12z M384.42,19.99v14.16c0,0.76-0.54,1.33-1.3,1.33c-0.67,0-1.27-0.57-1.27-1.33V19.99
			c0-0.73,0.54-1.33,1.27-1.33C383.85,18.66,384.42,19.26,384.42,19.99z"/>
		<path d="M403.95,24.72c0.1,1.3,0.1,3.24,0,4.51c-0.22,3.71-3.14,6.41-7.08,6.41c-3.9,0-6.86-2.7-7.08-6.41
			c-0.06-1.27-0.06-3.21,0-4.51c0.22-3.71,3.17-6.29,7.08-6.29C400.8,18.44,403.72,21.01,403.95,24.72z M392.36,24.91
			c-0.06,1.11-0.06,3.08,0,4.16c0.22,2.48,1.94,4.16,4.51,4.16s4.29-1.68,4.51-4.16c0.06-1.08,0.06-3.05,0-4.16
			c-0.16-2.35-1.84-4.06-4.51-4.06S392.52,22.56,392.36,24.91z"/>
	</g>
	<g>
		<path d="M231.93,59.3H221.8l-2.35,6.63c-0.25,0.67-1.02,0.98-1.71,0.73c-0.67-0.25-0.95-1.05-0.73-1.68l6.6-18.41
			c0.6-1.65,1.84-2.41,3.27-2.41c1.43,0,2.67,0.76,3.24,2.41l6.6,18.41c0.22,0.6-0.06,1.43-0.73,1.68
			c-0.67,0.25-1.46-0.06-1.71-0.73L231.93,59.3z M222.69,56.83h8.35l-3.33-9.49c-0.13-0.38-0.41-0.63-0.83-0.63
			c-0.41,0-0.7,0.25-0.83,0.63L222.69,56.83z"/>
		<path d="M262.4,65.53c0,0.76-0.54,1.33-1.27,1.33c-0.7,0-1.3-0.57-1.3-1.33v-9.08c0-2.92-1.27-4.19-3.62-4.19
			c-1.78,0-2.98,0.79-3.62,1.68v11.59c0,0.76-0.54,1.33-1.27,1.33c-0.7,0-1.3-0.57-1.3-1.33v-9.37c0-2.73-1.4-3.9-3.62-3.9
			c-2.48,0-3.52,0.98-3.62,1.05v12.22c0,0.76-0.54,1.33-1.27,1.33c-0.7,0-1.3-0.57-1.3-1.33V52.7c0-0.6,0.19-0.86,0.67-1.24
			c1.21-0.92,3.27-1.65,5.49-1.65c2.32,0,3.9,0.67,4.89,1.94c0.98-0.83,2.44-1.94,5.02-1.94c4.35,0,6.13,2.32,6.13,6.48V65.53z"/>
		<path d="M278.85,61.94c0,3.11-2.48,5.08-6.16,5.08c-2.38,0-4.22-0.6-5.65-1.78c-0.51-0.41-0.6-1.21-0.25-1.71
			c0.41-0.54,1.11-0.7,1.78-0.25c1.08,0.79,2.06,1.43,4.35,1.43c2.16,0,3.4-1.14,3.4-2.64c0-1.11-0.73-1.84-2.54-2.29
			c-1.08-0.25-1.08-0.22-2.29-0.54c-2.95-0.76-4.48-2.13-4.48-4.51c0-3.02,2.44-4.92,5.94-4.92c1.81,0,3.56,0.6,4.54,1.37
			c0.63,0.51,0.54,1.37,0.16,1.78c-0.41,0.48-1.11,0.51-1.71,0.16c-1.02-0.6-1.97-0.95-3.08-0.95c-2.22,0-3.33,0.92-3.33,2.48
			c0,1.02,0.57,1.68,2.48,2.19c1.02,0.29,2.13,0.51,2.63,0.63C277.39,58.16,278.85,59.62,278.85,61.94z"/>
		<path d="M287.9,67.02c-3.4,0-4.89-2.25-4.89-5.24V47.97c0-0.73,0.57-1.3,1.27-1.3c0.73,0,1.3,0.57,1.3,1.3v2.6h4.79
			c0.63,0,1.21,0.51,1.21,1.17s-0.57,1.17-1.21,1.17h-4.79v8.95c0,1.59,0.73,2.76,2.44,2.76c0.92,0,1.78-0.35,2.54-0.57
			c1.05-0.25,1.65,0.38,1.65,1.17c0,0.57-0.32,0.98-1.05,1.24C290.34,66.8,289.11,67.02,287.9,67.02z"/>
		<path d="M309.11,57.65c0,1.11-0.57,1.84-1.87,1.84h-9.49V60c0,2.98,1.94,4.67,4.73,4.67c1.14,0,2.44-0.32,3.87-0.83
			c1.14-0.44,1.84,0.29,1.84,1.02c0,0.41-0.16,0.79-0.7,1.14c-1.02,0.6-3.24,1.02-5.05,1.02c-4.38,0-6.98-2.76-7.21-6.83
			c-0.06-1.21-0.06-2.83,0.03-3.81c0.35-4.1,3.14-6.57,7.02-6.57c4.19,0,6.83,2.86,6.83,6.89V57.65z M306.19,57.34
			c0.25,0,0.38-0.13,0.41-0.38c0.19-2.89-1.56-4.83-4.29-4.83c-3.11,0-4.67,2.03-4.57,5.21H306.19z"/>
		<path d="M322.6,51.37c0,0.51-0.38,1.17-1.27,1.17c-0.63,0-1.4-0.25-2.51-0.25c-1.78,0.03-2.57,0.92-2.57,2.86v10.41
			c0,0.73-0.57,1.3-1.3,1.3c-0.7,0-1.3-0.57-1.3-1.3v-10.7c0-3.11,1.84-5.05,5.17-5.05c1.08,0,2.16,0.16,2.76,0.35
			C322.31,50.35,322.6,50.76,322.6,51.37z"/>
		<path d="M331.84,49.81c1.71,0,3.43,0.51,4.57,1.02v-5.33c0-0.73,0.57-1.33,1.27-1.33c0.76,0,1.3,0.6,1.3,1.33v18.57
			c0,0.44-0.1,0.73-0.54,1.05c-0.76,0.54-3.36,1.9-6.25,1.9c-4.22,0-6.7-2.51-7.02-6.41c-0.1-1.11-0.1-3.33,0-4.48
			C325.49,52.16,327.81,49.81,331.84,49.81z M332.22,64.61c1.52,0,3.49-0.76,4.19-1.3v-9.97c-0.76-0.44-2.6-1.11-4.48-1.11
			c-2.73,0-4,1.43-4.19,4.03c-0.06,0.95-0.06,3.08,0,4.16C328,63.18,329.46,64.61,332.22,64.61z"/>
		<path d="M356.82,64.19c0,0.48-0.13,0.79-0.54,1.05c-0.86,0.63-3.4,1.78-6.48,1.78c-4.16,0-6.35-2.22-6.35-5.4
			c0-2.79,2.1-5.14,6.38-5.14c1.52,0,2.79,0.22,4.44,0.67v-1.3c0-2.57-1.27-3.65-3.97-3.65c-1.46,0-2.86,0.48-3.78,0.83
			c-1.08,0.41-1.84-0.19-1.84-0.98c0-0.44,0.22-0.92,0.83-1.21c0.98-0.48,2.89-1.02,5.05-1.02c3.78,0,6.25,1.78,6.25,5.94V64.19z
			 M354.28,63.53v-4.16c-1.62-0.41-2.79-0.7-4.41-0.7c-2.16,0-3.84,1.05-3.84,2.89c0,2,1.33,3.14,4.06,3.14
			C352.66,64.7,354,63.81,354.28,63.53z"/>
		<path d="M384.32,65.53c0,0.76-0.54,1.33-1.27,1.33c-0.7,0-1.3-0.57-1.3-1.33v-9.08c0-2.92-1.27-4.19-3.62-4.19
			c-1.78,0-2.98,0.79-3.62,1.68v11.59c0,0.76-0.54,1.33-1.27,1.33c-0.7,0-1.3-0.57-1.3-1.33v-9.37c0-2.73-1.4-3.9-3.62-3.9
			c-2.48,0-3.52,0.98-3.62,1.05v12.22c0,0.76-0.54,1.33-1.27,1.33c-0.7,0-1.3-0.57-1.3-1.33V52.7c0-0.6,0.19-0.86,0.67-1.24
			c1.21-0.92,3.27-1.65,5.49-1.65c2.32,0,3.9,0.67,4.89,1.94c0.98-0.83,2.44-1.94,5.02-1.94c4.35,0,6.13,2.32,6.13,6.48V65.53z"/>
	</g>
</g>
</svg>
