<svg width="35" height="35" viewBox="0 0 35 35" fill="none" xmlns="http://www.w3.org/2000/svg">
<path d="M17.0017 0.000269868C12.4925 0.000269868 8.16822 1.7916 4.9797 4.97997C1.79133 8.16835 0 12.4931 0 17.002C0 21.5108 1.79133 25.8355 4.9797 29.024C8.16808 32.2124 12.4929 34.0037 17.0017 34.0037C20.8816 34.019 24.6471 32.6918 27.6602 30.2471C28.3418 29.6977 28.9803 29.097 29.5704 28.4503C32.5453 25.1845 34.1321 20.8892 33.995 16.4735C33.8577 12.0581 32.0074 7.86934 28.8353 4.79417C25.6633 1.71941 21.4193 -0.000202384 17.0015 1.78654e-08L17.0017 0.000269868ZM28.5906 26.0967C27.6851 22.3512 22.8411 19.4883 17.0017 19.4883C11.1589 19.4883 6.31758 22.3515 5.41285 26.0975C3.12449 23.184 2.01761 19.5152 2.31278 15.8222C2.60795 12.1294 4.28331 8.68279 7.00548 6.16963C9.72739 3.6562 13.296 2.2607 17.0008 2.2605C20.7054 2.2605 24.2745 3.65599 26.9968 6.16889C29.7189 8.68205 31.3946 12.1282 31.6897 15.8215C31.9852 19.5145 30.8786 23.1828 28.5904 26.0967L28.5906 26.0967Z" fill="#090940"/>
<path d="M22.3779 10.2092C23.0789 13.1783 21.2399 16.1537 18.2708 16.8544C15.3017 17.5555 12.3266 15.7167 11.6255 12.7474C10.9247 9.77826 12.7635 6.80315 15.7326 6.10209C18.7017 5.40131 21.6768 7.24007 22.3779 10.2092Z" fill="#090940"/>
</svg>